# xmcd
#
# Track frame offsets:
#	150
#	17545
#	40684
#	60655
#	82148
#	104859
#	130113
#	154326
#
# Disc length: 2349 seconds
#
# Revision: 0
# Processed by: cddbd v1.5.2PL0 Copyright (c) Steve Scherf et al.
# Submitted via: EasyCDDAExtractor 15.3.0.1
#
DISCID=66092b08
DTITLE=Richie Furay - Live at the Canyon Club February 2, 2012
DYEAR=2012
DGENRE=Country Rock
TTITLE0=Go And Say Goodbye
TTITLE1=Wake Up My Soul
TTITLE2=A Girl Like That
TTITLE3=Sad Memories
TTITLE4=Callin' Out Your Name
TTITLE5=A Good Feelin' To Know
TTITLE6=Kind Woman
TTITLE7=Still Fine
EXTD=
EXTT0=
EXTT1=
EXTT2=
EXTT3=
EXTT4=
EXTT5=
EXTT6=
EXTT7=
PLAYORDER=
